<mxfile host="app.diagrams.net" modified="2023-05-03T09:45:37.886Z" agent="Mozilla/5.0 (Windows NT 10.0; Win64; x64) AppleWebKit/537.36 (KHTML, like Gecko) Chrome/112.0.0.0 Safari/537.36" etag="K6iz4_L6J0ZN09kdiev5" version="21.2.6" type="google">
  <diagram id="C5RBs43oDa-KdzZeNtuy" name="Page-1">
    <mxGraphModel grid="1" page="1" gridSize="10" guides="1" tooltips="1" connect="1" arrows="1" fold="1" pageScale="1" pageWidth="1000" pageHeight="562" math="0" shadow="0">
      <root>
        <mxCell id="WIyWlLk6GJQsqaUBKTNV-0" />
        <mxCell id="WIyWlLk6GJQsqaUBKTNV-1" parent="WIyWlLk6GJQsqaUBKTNV-0" />
        <mxCell id="KRTxZUxMW_7njvFQWpot-2" value="" style="edgeStyle=orthogonalEdgeStyle;rounded=0;orthogonalLoop=1;jettySize=auto;html=1;fontColor=default;fontSize=11;strokeWidth=3;strokeColor=#000000;" edge="1" parent="WIyWlLk6GJQsqaUBKTNV-1" source="KRTxZUxMW_7njvFQWpot-0" target="KRTxZUxMW_7njvFQWpot-1">
          <mxGeometry relative="1" as="geometry" />
        </mxCell>
        <mxCell id="KRTxZUxMW_7njvFQWpot-0" value="start" style="ellipse;whiteSpace=wrap;html=1;fillColor=#ffe6cc;strokeColor=#d79b00;strokeWidth=2;fontStyle=1;fontSize=13;" vertex="1" parent="WIyWlLk6GJQsqaUBKTNV-1">
          <mxGeometry x="20" y="251" width="80" height="60" as="geometry" />
        </mxCell>
        <mxCell id="KRTxZUxMW_7njvFQWpot-4" value="" style="edgeStyle=orthogonalEdgeStyle;rounded=0;orthogonalLoop=1;jettySize=auto;html=1;strokeWidth=3;strokeColor=#000000;" edge="1" parent="WIyWlLk6GJQsqaUBKTNV-1" source="KRTxZUxMW_7njvFQWpot-1" target="KRTxZUxMW_7njvFQWpot-3">
          <mxGeometry relative="1" as="geometry" />
        </mxCell>
        <mxCell id="KRTxZUxMW_7njvFQWpot-1" value="Input harga, voucher, jarak, pajak" style="shape=parallelogram;perimeter=parallelogramPerimeter;whiteSpace=wrap;html=1;fixedSize=1;fontSize=13;fillColor=#ffe6cc;strokeColor=#d79b00;strokeWidth=2;fontStyle=1;" vertex="1" parent="WIyWlLk6GJQsqaUBKTNV-1">
          <mxGeometry x="160" y="251" width="120" height="60" as="geometry" />
        </mxCell>
        <mxCell id="KRTxZUxMW_7njvFQWpot-8" value="" style="edgeStyle=orthogonalEdgeStyle;rounded=0;orthogonalLoop=1;jettySize=auto;html=1;strokeColor=#000000;strokeWidth=3;" edge="1" parent="WIyWlLk6GJQsqaUBKTNV-1" source="KRTxZUxMW_7njvFQWpot-3" target="KRTxZUxMW_7njvFQWpot-5">
          <mxGeometry relative="1" as="geometry" />
        </mxCell>
        <mxCell id="KRTxZUxMW_7njvFQWpot-22" value="" style="edgeStyle=orthogonalEdgeStyle;rounded=0;orthogonalLoop=1;jettySize=auto;html=1;strokeColor=#000000;strokeWidth=3;" edge="1" parent="WIyWlLk6GJQsqaUBKTNV-1" source="KRTxZUxMW_7njvFQWpot-3" target="KRTxZUxMW_7njvFQWpot-21">
          <mxGeometry relative="1" as="geometry" />
        </mxCell>
        <mxCell id="KRTxZUxMW_7njvFQWpot-3" value="jika typeof harga !== number" style="rhombus;whiteSpace=wrap;html=1;fontSize=13;fillColor=#ffe6cc;strokeColor=#d79b00;strokeWidth=2;fontStyle=1;" vertex="1" parent="WIyWlLk6GJQsqaUBKTNV-1">
          <mxGeometry x="330" y="226" width="120" height="111" as="geometry" />
        </mxCell>
        <mxCell id="KRTxZUxMW_7njvFQWpot-9" value="" style="edgeStyle=orthogonalEdgeStyle;rounded=0;orthogonalLoop=1;jettySize=auto;html=1;strokeColor=#000000;strokeWidth=3;" edge="1" parent="WIyWlLk6GJQsqaUBKTNV-1" source="KRTxZUxMW_7njvFQWpot-5" target="KRTxZUxMW_7njvFQWpot-6">
          <mxGeometry relative="1" as="geometry" />
        </mxCell>
        <mxCell id="KRTxZUxMW_7njvFQWpot-25" value="" style="edgeStyle=orthogonalEdgeStyle;rounded=0;orthogonalLoop=1;jettySize=auto;html=1;strokeColor=#000000;strokeWidth=3;" edge="1" parent="WIyWlLk6GJQsqaUBKTNV-1" source="KRTxZUxMW_7njvFQWpot-5" target="KRTxZUxMW_7njvFQWpot-23">
          <mxGeometry relative="1" as="geometry" />
        </mxCell>
        <mxCell id="KRTxZUxMW_7njvFQWpot-5" value="jika typeof voucher !== string || voucher.toUpperCase() !== voucher" style="rhombus;whiteSpace=wrap;html=1;fontSize=13;fillColor=#ffe6cc;strokeColor=#d79b00;strokeWidth=2;fontStyle=1;" vertex="1" parent="WIyWlLk6GJQsqaUBKTNV-1">
          <mxGeometry x="480" y="194.5" width="180" height="174" as="geometry" />
        </mxCell>
        <mxCell id="KRTxZUxMW_7njvFQWpot-10" value="" style="edgeStyle=orthogonalEdgeStyle;rounded=0;orthogonalLoop=1;jettySize=auto;html=1;strokeColor=#000000;strokeWidth=3;" edge="1" parent="WIyWlLk6GJQsqaUBKTNV-1" source="KRTxZUxMW_7njvFQWpot-6" target="KRTxZUxMW_7njvFQWpot-7">
          <mxGeometry relative="1" as="geometry" />
        </mxCell>
        <mxCell id="KRTxZUxMW_7njvFQWpot-29" value="" style="edgeStyle=orthogonalEdgeStyle;rounded=0;orthogonalLoop=1;jettySize=auto;html=1;strokeColor=#000000;strokeWidth=3;" edge="1" parent="WIyWlLk6GJQsqaUBKTNV-1" source="KRTxZUxMW_7njvFQWpot-6" target="KRTxZUxMW_7njvFQWpot-28">
          <mxGeometry relative="1" as="geometry" />
        </mxCell>
        <mxCell id="KRTxZUxMW_7njvFQWpot-6" value="jika typeof jarak !== number" style="rhombus;whiteSpace=wrap;html=1;fontSize=13;fillColor=#ffe6cc;strokeColor=#d79b00;strokeWidth=2;fontStyle=1;" vertex="1" parent="WIyWlLk6GJQsqaUBKTNV-1">
          <mxGeometry x="730" y="226" width="120" height="111" as="geometry" />
        </mxCell>
        <mxCell id="KRTxZUxMW_7njvFQWpot-32" value="" style="edgeStyle=orthogonalEdgeStyle;rounded=0;orthogonalLoop=1;jettySize=auto;html=1;strokeColor=#000000;strokeWidth=3;" edge="1" parent="WIyWlLk6GJQsqaUBKTNV-1" source="KRTxZUxMW_7njvFQWpot-7" target="KRTxZUxMW_7njvFQWpot-31">
          <mxGeometry relative="1" as="geometry" />
        </mxCell>
        <mxCell id="yGjK4I7xWaciO_NM302A-58" value="" style="edgeStyle=orthogonalEdgeStyle;rounded=0;orthogonalLoop=1;jettySize=auto;html=1;strokeColor=#000000;strokeWidth=3;" edge="1" parent="WIyWlLk6GJQsqaUBKTNV-1" source="KRTxZUxMW_7njvFQWpot-7" target="yGjK4I7xWaciO_NM302A-34">
          <mxGeometry relative="1" as="geometry" />
        </mxCell>
        <mxCell id="KRTxZUxMW_7njvFQWpot-7" value="jika typeof pajak !== boolean" style="rhombus;whiteSpace=wrap;html=1;fontSize=13;fillColor=#ffe6cc;strokeColor=#d79b00;strokeWidth=2;fontStyle=1;" vertex="1" parent="WIyWlLk6GJQsqaUBKTNV-1">
          <mxGeometry x="890" y="226" width="120" height="111" as="geometry" />
        </mxCell>
        <mxCell id="KRTxZUxMW_7njvFQWpot-21" value="Parameter (harga) harus bertipe number" style="shape=parallelogram;perimeter=parallelogramPerimeter;whiteSpace=wrap;html=1;fixedSize=1;fontSize=13;fillColor=#ffe6cc;strokeColor=#d79b00;strokeWidth=2;fontStyle=1;" vertex="1" parent="WIyWlLk6GJQsqaUBKTNV-1">
          <mxGeometry x="330" y="442.5" width="120" height="60" as="geometry" />
        </mxCell>
        <mxCell id="KRTxZUxMW_7njvFQWpot-23" value="Parameter (voucher) harus bertipe string dan huruf kapital" style="shape=parallelogram;perimeter=parallelogramPerimeter;whiteSpace=wrap;html=1;fixedSize=1;fontSize=13;fillColor=#ffe6cc;strokeColor=#d79b00;strokeWidth=2;fontStyle=1;" vertex="1" parent="WIyWlLk6GJQsqaUBKTNV-1">
          <mxGeometry x="510" y="442.5" width="120" height="60" as="geometry" />
        </mxCell>
        <mxCell id="KRTxZUxMW_7njvFQWpot-28" value="Parameter ketiga (jarak) harus bertipe number" style="shape=parallelogram;perimeter=parallelogramPerimeter;whiteSpace=wrap;html=1;fixedSize=1;fontSize=13;fillColor=#ffe6cc;strokeColor=#d79b00;strokeWidth=2;fontStyle=1;" vertex="1" parent="WIyWlLk6GJQsqaUBKTNV-1">
          <mxGeometry x="730" y="442.5" width="120" height="60" as="geometry" />
        </mxCell>
        <mxCell id="KRTxZUxMW_7njvFQWpot-31" value="Parameter keempat (pajak) harus bertipe boolean" style="shape=parallelogram;perimeter=parallelogramPerimeter;whiteSpace=wrap;html=1;fixedSize=1;fontSize=13;fillColor=#ffe6cc;strokeColor=#d79b00;strokeWidth=2;fontStyle=1;" vertex="1" parent="WIyWlLk6GJQsqaUBKTNV-1">
          <mxGeometry x="890" y="442.5" width="120" height="60" as="geometry" />
        </mxCell>
        <mxCell id="KRTxZUxMW_7njvFQWpot-35" value="" style="endArrow=none;html=1;rounded=0;entryX=0.5;entryY=1;entryDx=0;entryDy=0;strokeColor=#000000;strokeWidth=3;" edge="1" parent="WIyWlLk6GJQsqaUBKTNV-1" target="KRTxZUxMW_7njvFQWpot-21">
          <mxGeometry width="50" height="50" relative="1" as="geometry">
            <mxPoint x="390" y="550" as="sourcePoint" />
            <mxPoint x="430" y="502.5" as="targetPoint" />
          </mxGeometry>
        </mxCell>
        <mxCell id="KRTxZUxMW_7njvFQWpot-36" value="" style="endArrow=classic;html=1;rounded=0;strokeColor=#000000;strokeWidth=3;entryX=0.5;entryY=1;entryDx=0;entryDy=0;" edge="1" parent="WIyWlLk6GJQsqaUBKTNV-1" target="KRTxZUxMW_7njvFQWpot-1">
          <mxGeometry width="50" height="50" relative="1" as="geometry">
            <mxPoint x="390" y="550" as="sourcePoint" />
            <mxPoint x="1000" y="550" as="targetPoint" />
            <Array as="points">
              <mxPoint x="220" y="550" />
            </Array>
          </mxGeometry>
        </mxCell>
        <mxCell id="KRTxZUxMW_7njvFQWpot-39" value="" style="endArrow=none;html=1;rounded=0;strokeColor=#000000;strokeWidth=3;entryX=0.409;entryY=1.008;entryDx=0;entryDy=0;entryPerimeter=0;" edge="1" parent="WIyWlLk6GJQsqaUBKTNV-1" target="KRTxZUxMW_7njvFQWpot-23">
          <mxGeometry width="50" height="50" relative="1" as="geometry">
            <mxPoint x="560" y="549.5" as="sourcePoint" />
            <mxPoint x="560" y="510" as="targetPoint" />
          </mxGeometry>
        </mxCell>
        <mxCell id="KRTxZUxMW_7njvFQWpot-40" value="" style="endArrow=none;html=1;rounded=0;entryX=0.5;entryY=1;entryDx=0;entryDy=0;strokeColor=#000000;strokeWidth=3;" edge="1" parent="WIyWlLk6GJQsqaUBKTNV-1">
          <mxGeometry width="50" height="50" relative="1" as="geometry">
            <mxPoint x="789.6" y="549.5" as="sourcePoint" />
            <mxPoint x="789.6" y="502.5" as="targetPoint" />
          </mxGeometry>
        </mxCell>
        <mxCell id="KRTxZUxMW_7njvFQWpot-41" value="" style="endArrow=none;html=1;rounded=0;entryX=0.5;entryY=1;entryDx=0;entryDy=0;strokeColor=#000000;strokeWidth=3;" edge="1" parent="WIyWlLk6GJQsqaUBKTNV-1">
          <mxGeometry width="50" height="50" relative="1" as="geometry">
            <mxPoint x="390" y="550" as="sourcePoint" />
            <mxPoint x="949.6" y="502.5" as="targetPoint" />
            <Array as="points">
              <mxPoint x="950" y="550" />
            </Array>
          </mxGeometry>
        </mxCell>
        <mxCell id="KRTxZUxMW_7njvFQWpot-42" value="&lt;b&gt;False&lt;/b&gt;" style="text;html=1;strokeColor=none;fillColor=none;align=center;verticalAlign=middle;whiteSpace=wrap;rounded=0;" vertex="1" parent="WIyWlLk6GJQsqaUBKTNV-1">
          <mxGeometry x="430" y="251" width="60" height="30" as="geometry" />
        </mxCell>
        <mxCell id="KRTxZUxMW_7njvFQWpot-43" value="&lt;b&gt;False&lt;/b&gt;" style="text;html=1;strokeColor=none;fillColor=none;align=center;verticalAlign=middle;whiteSpace=wrap;rounded=0;" vertex="1" parent="WIyWlLk6GJQsqaUBKTNV-1">
          <mxGeometry x="660" y="251" width="60" height="30" as="geometry" />
        </mxCell>
        <mxCell id="KRTxZUxMW_7njvFQWpot-44" value="&lt;b&gt;False&lt;/b&gt;" style="text;html=1;strokeColor=none;fillColor=none;align=center;verticalAlign=middle;whiteSpace=wrap;rounded=0;" vertex="1" parent="WIyWlLk6GJQsqaUBKTNV-1">
          <mxGeometry x="840" y="251" width="60" height="30" as="geometry" />
        </mxCell>
        <mxCell id="KRTxZUxMW_7njvFQWpot-45" value="&lt;b&gt;True&lt;/b&gt;" style="text;html=1;strokeColor=none;fillColor=none;align=center;verticalAlign=middle;whiteSpace=wrap;rounded=0;" vertex="1" parent="WIyWlLk6GJQsqaUBKTNV-1">
          <mxGeometry x="380" y="368.5" width="60" height="30" as="geometry" />
        </mxCell>
        <mxCell id="KRTxZUxMW_7njvFQWpot-46" value="&lt;b&gt;True&lt;/b&gt;" style="text;html=1;strokeColor=none;fillColor=none;align=center;verticalAlign=middle;whiteSpace=wrap;rounded=0;" vertex="1" parent="WIyWlLk6GJQsqaUBKTNV-1">
          <mxGeometry x="560" y="368.5" width="60" height="30" as="geometry" />
        </mxCell>
        <mxCell id="KRTxZUxMW_7njvFQWpot-47" value="&lt;b&gt;True&lt;/b&gt;" style="text;html=1;strokeColor=none;fillColor=none;align=center;verticalAlign=middle;whiteSpace=wrap;rounded=0;" vertex="1" parent="WIyWlLk6GJQsqaUBKTNV-1">
          <mxGeometry x="780" y="368.5" width="60" height="30" as="geometry" />
        </mxCell>
        <mxCell id="KRTxZUxMW_7njvFQWpot-48" value="&lt;b&gt;True&lt;/b&gt;" style="text;html=1;strokeColor=none;fillColor=none;align=center;verticalAlign=middle;whiteSpace=wrap;rounded=0;" vertex="1" parent="WIyWlLk6GJQsqaUBKTNV-1">
          <mxGeometry x="940" y="368.5" width="60" height="30" as="geometry" />
        </mxCell>
        <mxCell id="yGjK4I7xWaciO_NM302A-31" value="&lt;b style=&quot;&quot;&gt;False&lt;/b&gt;" style="text;html=1;strokeColor=none;fillColor=none;align=center;verticalAlign=middle;whiteSpace=wrap;rounded=0;" vertex="1" parent="WIyWlLk6GJQsqaUBKTNV-1">
          <mxGeometry x="1000" y="251.5" width="60" height="30" as="geometry" />
        </mxCell>
        <mxCell id="yGjK4I7xWaciO_NM302A-60" value="" style="edgeStyle=orthogonalEdgeStyle;rounded=0;orthogonalLoop=1;jettySize=auto;html=1;strokeColor=#000000;strokeWidth=3;" edge="1" parent="WIyWlLk6GJQsqaUBKTNV-1" source="yGjK4I7xWaciO_NM302A-34" target="yGjK4I7xWaciO_NM302A-36">
          <mxGeometry relative="1" as="geometry" />
        </mxCell>
        <mxCell id="yGjK4I7xWaciO_NM302A-34" value="&lt;font style=&quot;font-size: 11px;&quot;&gt;membuat 3 variabel&lt;br&gt;let subtotal = 0, potongan = 0, biaya antar = 0&lt;br&gt;let pajakHarga = pajak ? harga * 50% : 0&lt;/font&gt;" style="rounded=0;whiteSpace=wrap;html=1;fillColor=#ffe6cc;strokeColor=#d79b00;" vertex="1" parent="WIyWlLk6GJQsqaUBKTNV-1">
          <mxGeometry x="1070" y="246" width="130" height="70" as="geometry" />
        </mxCell>
        <mxCell id="yGjK4I7xWaciO_NM302A-35" value="" style="edgeStyle=orthogonalEdgeStyle;rounded=0;orthogonalLoop=1;jettySize=auto;html=1;strokeColor=#000000;strokeWidth=3;" edge="1" parent="WIyWlLk6GJQsqaUBKTNV-1" source="yGjK4I7xWaciO_NM302A-36" target="yGjK4I7xWaciO_NM302A-40">
          <mxGeometry relative="1" as="geometry" />
        </mxCell>
        <mxCell id="yGjK4I7xWaciO_NM302A-61" value="" style="edgeStyle=orthogonalEdgeStyle;rounded=0;orthogonalLoop=1;jettySize=auto;html=1;strokeColor=#000000;strokeWidth=3;" edge="1" parent="WIyWlLk6GJQsqaUBKTNV-1" source="yGjK4I7xWaciO_NM302A-36" target="yGjK4I7xWaciO_NM302A-38">
          <mxGeometry relative="1" as="geometry" />
        </mxCell>
        <mxCell id="yGjK4I7xWaciO_NM302A-36" value="jika&amp;nbsp;voucher === &quot;PIJARFOOD5&quot; &amp;amp;&amp;amp; harga &amp;gt;= 50000" style="rhombus;whiteSpace=wrap;html=1;fillColor=#ffe6cc;strokeColor=#d79b00;rounded=0;" vertex="1" parent="WIyWlLk6GJQsqaUBKTNV-1">
          <mxGeometry x="1260" y="226" width="130" height="110" as="geometry" />
        </mxCell>
        <mxCell id="yGjK4I7xWaciO_NM302A-37" value="" style="edgeStyle=orthogonalEdgeStyle;rounded=0;orthogonalLoop=1;jettySize=auto;html=1;strokeColor=#000000;strokeWidth=3;" edge="1" parent="WIyWlLk6GJQsqaUBKTNV-1" source="yGjK4I7xWaciO_NM302A-38" target="yGjK4I7xWaciO_NM302A-42">
          <mxGeometry relative="1" as="geometry" />
        </mxCell>
        <mxCell id="yGjK4I7xWaciO_NM302A-38" value="else&amp;nbsp;voucher === &quot;DITRAKTIRPIJAR&quot; &amp;amp;&amp;amp; harga &amp;gt;= 25000" style="rhombus;whiteSpace=wrap;html=1;fillColor=#ffe6cc;strokeColor=#d79b00;rounded=0;" vertex="1" parent="WIyWlLk6GJQsqaUBKTNV-1">
          <mxGeometry x="1257.5" y="73.5" width="135" height="110" as="geometry" />
        </mxCell>
        <mxCell id="yGjK4I7xWaciO_NM302A-39" value="" style="edgeStyle=orthogonalEdgeStyle;rounded=0;orthogonalLoop=1;jettySize=auto;html=1;strokeColor=#000000;strokeWidth=3;" edge="1" parent="WIyWlLk6GJQsqaUBKTNV-1" source="yGjK4I7xWaciO_NM302A-40" target="yGjK4I7xWaciO_NM302A-45">
          <mxGeometry relative="1" as="geometry" />
        </mxCell>
        <mxCell id="yGjK4I7xWaciO_NM302A-40" value="potongan = Math.min(harga * 0.5, 50000)" style="whiteSpace=wrap;html=1;fillColor=#ffe6cc;strokeColor=#d79b00;rounded=0;" vertex="1" parent="WIyWlLk6GJQsqaUBKTNV-1">
          <mxGeometry x="1440" y="251.5" width="120" height="60" as="geometry" />
        </mxCell>
        <mxCell id="yGjK4I7xWaciO_NM302A-41" value="" style="edgeStyle=orthogonalEdgeStyle;rounded=0;orthogonalLoop=1;jettySize=auto;html=1;strokeColor=#000000;strokeWidth=3;" edge="1" parent="WIyWlLk6GJQsqaUBKTNV-1" source="yGjK4I7xWaciO_NM302A-42" target="yGjK4I7xWaciO_NM302A-45">
          <mxGeometry relative="1" as="geometry" />
        </mxCell>
        <mxCell id="yGjK4I7xWaciO_NM302A-42" value="potongan = Math.min(harga * 0.6, 30000)" style="whiteSpace=wrap;html=1;fillColor=#ffe6cc;strokeColor=#d79b00;rounded=0;" vertex="1" parent="WIyWlLk6GJQsqaUBKTNV-1">
          <mxGeometry x="1440" y="98.5" width="120" height="60" as="geometry" />
        </mxCell>
        <mxCell id="yGjK4I7xWaciO_NM302A-43" value="" style="edgeStyle=orthogonalEdgeStyle;rounded=0;orthogonalLoop=1;jettySize=auto;html=1;strokeColor=#000000;strokeWidth=3;" edge="1" parent="WIyWlLk6GJQsqaUBKTNV-1" source="yGjK4I7xWaciO_NM302A-45" target="yGjK4I7xWaciO_NM302A-47">
          <mxGeometry relative="1" as="geometry" />
        </mxCell>
        <mxCell id="yGjK4I7xWaciO_NM302A-44" value="" style="edgeStyle=orthogonalEdgeStyle;rounded=0;orthogonalLoop=1;jettySize=auto;html=1;strokeColor=#000000;strokeWidth=3;" edge="1" parent="WIyWlLk6GJQsqaUBKTNV-1" source="yGjK4I7xWaciO_NM302A-45" target="yGjK4I7xWaciO_NM302A-49">
          <mxGeometry relative="1" as="geometry" />
        </mxCell>
        <mxCell id="yGjK4I7xWaciO_NM302A-45" value="jika jarak &amp;gt; 2" style="rhombus;whiteSpace=wrap;html=1;fillColor=#ffe6cc;strokeColor=#d79b00;" vertex="1" parent="WIyWlLk6GJQsqaUBKTNV-1">
          <mxGeometry x="1600" y="163.5" width="80" height="80" as="geometry" />
        </mxCell>
        <mxCell id="yGjK4I7xWaciO_NM302A-46" value="" style="edgeStyle=orthogonalEdgeStyle;rounded=0;orthogonalLoop=1;jettySize=auto;html=1;strokeColor=#000000;strokeWidth=3;" edge="1" parent="WIyWlLk6GJQsqaUBKTNV-1" source="yGjK4I7xWaciO_NM302A-47" target="yGjK4I7xWaciO_NM302A-51">
          <mxGeometry relative="1" as="geometry" />
        </mxCell>
        <mxCell id="yGjK4I7xWaciO_NM302A-47" value="biayaAntar = 5000 + (jarak - 2) * 3000" style="whiteSpace=wrap;html=1;fillColor=#ffe6cc;strokeColor=#d79b00;" vertex="1" parent="WIyWlLk6GJQsqaUBKTNV-1">
          <mxGeometry x="1730" y="173.5" width="120" height="60" as="geometry" />
        </mxCell>
        <mxCell id="yGjK4I7xWaciO_NM302A-48" style="edgeStyle=orthogonalEdgeStyle;rounded=0;orthogonalLoop=1;jettySize=auto;html=1;exitX=1;exitY=0.5;exitDx=0;exitDy=0;entryX=0.5;entryY=0;entryDx=0;entryDy=0;strokeColor=#000000;strokeWidth=3;" edge="1" parent="WIyWlLk6GJQsqaUBKTNV-1" source="yGjK4I7xWaciO_NM302A-49" target="yGjK4I7xWaciO_NM302A-51">
          <mxGeometry relative="1" as="geometry">
            <mxPoint x="1800" y="403.5" as="targetPoint" />
            <Array as="points">
              <mxPoint x="1970" y="83.5" />
              <mxPoint x="1970" y="363.5" />
              <mxPoint x="1790" y="363.5" />
            </Array>
          </mxGeometry>
        </mxCell>
        <mxCell id="yGjK4I7xWaciO_NM302A-49" value="else&lt;br&gt;biayaAntar = 5000" style="whiteSpace=wrap;html=1;fillColor=#ffe6cc;strokeColor=#d79b00;" vertex="1" parent="WIyWlLk6GJQsqaUBKTNV-1">
          <mxGeometry x="1670" y="53.5" width="120" height="60" as="geometry" />
        </mxCell>
        <mxCell id="yGjK4I7xWaciO_NM302A-50" value="" style="edgeStyle=orthogonalEdgeStyle;rounded=0;orthogonalLoop=1;jettySize=auto;html=1;strokeColor=#000000;strokeWidth=3;" edge="1" parent="WIyWlLk6GJQsqaUBKTNV-1" source="yGjK4I7xWaciO_NM302A-51" target="yGjK4I7xWaciO_NM302A-52">
          <mxGeometry relative="1" as="geometry" />
        </mxCell>
        <mxCell id="yGjK4I7xWaciO_NM302A-51" value="Output&lt;br&gt;subtotal = harga - potongan + biayaAntar + pajakHarga" style="shape=parallelogram;perimeter=parallelogramPerimeter;whiteSpace=wrap;html=1;fixedSize=1;fillColor=#ffe6cc;strokeColor=#d79b00;" vertex="1" parent="WIyWlLk6GJQsqaUBKTNV-1">
          <mxGeometry x="1695" y="413.5" width="190" height="50" as="geometry" />
        </mxCell>
        <mxCell id="yGjK4I7xWaciO_NM302A-52" value="end" style="ellipse;whiteSpace=wrap;html=1;fillColor=#ffe6cc;strokeColor=#d79b00;" vertex="1" parent="WIyWlLk6GJQsqaUBKTNV-1">
          <mxGeometry x="1960" y="398.5" width="80" height="80" as="geometry" />
        </mxCell>
        <mxCell id="yGjK4I7xWaciO_NM302A-53" value="&lt;b style=&quot;&quot;&gt;True&lt;/b&gt;" style="text;html=1;strokeColor=none;fillColor=none;align=center;verticalAlign=middle;whiteSpace=wrap;rounded=0;" vertex="1" parent="WIyWlLk6GJQsqaUBKTNV-1">
          <mxGeometry x="1380" y="248.5" width="60" height="30" as="geometry" />
        </mxCell>
        <mxCell id="yGjK4I7xWaciO_NM302A-54" value="&lt;b style=&quot;&quot;&gt;False&lt;/b&gt;" style="text;html=1;strokeColor=none;fillColor=none;align=center;verticalAlign=middle;whiteSpace=wrap;rounded=0;" vertex="1" parent="WIyWlLk6GJQsqaUBKTNV-1">
          <mxGeometry x="1320" y="196" width="60" height="30" as="geometry" />
        </mxCell>
        <mxCell id="yGjK4I7xWaciO_NM302A-55" value="&lt;b style=&quot;&quot;&gt;True&lt;/b&gt;" style="text;html=1;strokeColor=none;fillColor=none;align=center;verticalAlign=middle;whiteSpace=wrap;rounded=0;" vertex="1" parent="WIyWlLk6GJQsqaUBKTNV-1">
          <mxGeometry x="1380" y="98.5" width="60" height="30" as="geometry" />
        </mxCell>
        <mxCell id="yGjK4I7xWaciO_NM302A-56" value="&lt;b style=&quot;&quot;&gt;True&lt;/b&gt;" style="text;html=1;strokeColor=none;fillColor=none;align=center;verticalAlign=middle;whiteSpace=wrap;rounded=0;" vertex="1" parent="WIyWlLk6GJQsqaUBKTNV-1">
          <mxGeometry x="1670" y="173.5" width="60" height="30" as="geometry" />
        </mxCell>
        <mxCell id="yGjK4I7xWaciO_NM302A-57" value="&lt;b style=&quot;&quot;&gt;False&lt;/b&gt;" style="text;html=1;strokeColor=none;fillColor=none;align=center;verticalAlign=middle;whiteSpace=wrap;rounded=0;" vertex="1" parent="WIyWlLk6GJQsqaUBKTNV-1">
          <mxGeometry x="1650" y="113.5" width="60" height="30" as="geometry" />
        </mxCell>
      </root>
    </mxGraphModel>
  </diagram>
</mxfile>
